<svg width="149" height="35" viewBox="0 0 149 35" fill="none" xmlns="http://www.w3.org/2000/svg">
<path d="M59.704 9.248L53.56 26H49.48L43.336 9.248H46.936L51.544 22.568L56.128 9.248H59.704ZM60.8545 19.304C60.8545 17.96 61.1185 16.768 61.6465 15.728C62.1905 14.688 62.9185 13.888 63.8305 13.328C64.7585 12.768 65.7905 12.488 66.9265 12.488C67.9185 12.488 68.7825 12.688 69.5185 13.088C70.2705 13.488 70.8705 13.992 71.3185 14.6V12.704H74.7025V26H71.3185V24.056C70.8865 24.68 70.2865 25.2 69.5185 25.616C68.7665 26.016 67.8945 26.216 66.9025 26.216C65.7825 26.216 64.7585 25.928 63.8305 25.352C62.9185 24.776 62.1905 23.968 61.6465 22.928C61.1185 21.872 60.8545 20.664 60.8545 19.304ZM71.3185 19.352C71.3185 18.536 71.1585 17.84 70.8385 17.264C70.5185 16.672 70.0865 16.224 69.5425 15.92C68.9985 15.6 68.4145 15.44 67.7905 15.44C67.1665 15.44 66.5905 15.592 66.0625 15.896C65.5345 16.2 65.1025 16.648 64.7665 17.24C64.4465 17.816 64.2865 18.504 64.2865 19.304C64.2865 20.104 64.4465 20.808 64.7665 21.416C65.1025 22.008 65.5345 22.464 66.0625 22.784C66.6065 23.104 67.1825 23.264 67.7905 23.264C68.4145 23.264 68.9985 23.112 69.5425 22.808C70.0865 22.488 70.5185 22.04 70.8385 21.464C71.1585 20.872 71.3185 20.168 71.3185 19.352ZM83.1921 12.488C84.1841 12.488 85.0561 12.688 85.8081 13.088C86.5601 13.472 87.1521 13.976 87.5841 14.6V12.704H90.9681V26.096C90.9681 27.328 90.7201 28.424 90.2241 29.384C89.7281 30.36 88.9841 31.128 87.9921 31.688C87.0001 32.264 85.8001 32.552 84.3921 32.552C82.5041 32.552 80.9521 32.112 79.7361 31.232C78.5361 30.352 77.8561 29.152 77.6961 27.632H81.0321C81.2081 28.24 81.5841 28.72 82.1601 29.072C82.7521 29.44 83.4641 29.624 84.2961 29.624C85.2721 29.624 86.0641 29.328 86.6721 28.736C87.2801 28.16 87.5841 27.28 87.5841 26.096V24.032C87.1521 24.656 86.5521 25.176 85.7841 25.592C85.0321 26.008 84.1681 26.216 83.1921 26.216C82.0721 26.216 81.0481 25.928 80.1201 25.352C79.1921 24.776 78.4561 23.968 77.9121 22.928C77.3841 21.872 77.1201 20.664 77.1201 19.304C77.1201 17.96 77.3841 16.768 77.9121 15.728C78.4561 14.688 79.1841 13.888 80.0961 13.328C81.0241 12.768 82.0561 12.488 83.1921 12.488ZM87.5841 19.352C87.5841 18.536 87.4241 17.84 87.1041 17.264C86.7841 16.672 86.3521 16.224 85.8081 15.92C85.2641 15.6 84.6801 15.44 84.0561 15.44C83.4321 15.44 82.8561 15.592 82.3281 15.896C81.8001 16.2 81.3681 16.648 81.0321 17.24C80.7121 17.816 80.5521 18.504 80.5521 19.304C80.5521 20.104 80.7121 20.808 81.0321 21.416C81.3681 22.008 81.8001 22.464 82.3281 22.784C82.8721 23.104 83.4481 23.264 84.0561 23.264C84.6801 23.264 85.2641 23.112 85.8081 22.808C86.3521 22.488 86.7841 22.04 87.1041 21.464C87.4241 20.872 87.5841 20.168 87.5841 19.352ZM93.3857 19.304C93.3857 17.96 93.6497 16.768 94.1777 15.728C94.7218 14.688 95.4498 13.888 96.3618 13.328C97.2898 12.768 98.3218 12.488 99.4578 12.488C100.45 12.488 101.314 12.688 102.05 13.088C102.802 13.488 103.402 13.992 103.85 14.6V12.704H107.234V26H103.85V24.056C103.418 24.68 102.818 25.2 102.05 25.616C101.298 26.016 100.426 26.216 99.4338 26.216C98.3138 26.216 97.2898 25.928 96.3618 25.352C95.4498 24.776 94.7218 23.968 94.1777 22.928C93.6497 21.872 93.3857 20.664 93.3857 19.304ZM103.85 19.352C103.85 18.536 103.69 17.84 103.37 17.264C103.05 16.672 102.618 16.224 102.074 15.92C101.53 15.6 100.946 15.44 100.322 15.44C99.6978 15.44 99.1218 15.592 98.5938 15.896C98.0658 16.2 97.6338 16.648 97.2978 17.24C96.9778 17.816 96.8178 18.504 96.8178 19.304C96.8178 20.104 96.9778 20.808 97.2978 21.416C97.6338 22.008 98.0658 22.464 98.5938 22.784C99.1378 23.104 99.7138 23.264 100.322 23.264C100.946 23.264 101.53 23.112 102.074 22.808C102.618 22.488 103.05 22.04 103.37 21.464C103.69 20.872 103.85 20.168 103.85 19.352ZM115.603 26.216C114.515 26.216 113.539 26.024 112.675 25.64C111.811 25.24 111.123 24.704 110.611 24.032C110.115 23.36 109.843 22.616 109.795 21.8H113.179C113.243 22.312 113.491 22.736 113.923 23.072C114.371 23.408 114.923 23.576 115.579 23.576C116.219 23.576 116.715 23.448 117.067 23.192C117.435 22.936 117.619 22.608 117.619 22.208C117.619 21.776 117.395 21.456 116.947 21.248C116.515 21.024 115.819 20.784 114.859 20.528C113.867 20.288 113.051 20.04 112.411 19.784C111.787 19.528 111.243 19.136 110.779 18.608C110.331 18.08 110.107 17.368 110.107 16.472C110.107 15.736 110.315 15.064 110.731 14.456C111.163 13.848 111.771 13.368 112.555 13.016C113.355 12.664 114.291 12.488 115.363 12.488C116.947 12.488 118.211 12.888 119.155 13.688C120.099 14.472 120.619 15.536 120.715 16.88H117.499C117.451 16.352 117.227 15.936 116.827 15.632C116.443 15.312 115.923 15.152 115.267 15.152C114.659 15.152 114.187 15.264 113.851 15.488C113.531 15.712 113.371 16.024 113.371 16.424C113.371 16.872 113.595 17.216 114.043 17.456C114.491 17.68 115.187 17.912 116.131 18.152C117.091 18.392 117.883 18.64 118.507 18.896C119.131 19.152 119.667 19.552 120.115 20.096C120.579 20.624 120.819 21.328 120.835 22.208C120.835 22.976 120.619 23.664 120.187 24.272C119.771 24.88 119.163 25.36 118.363 25.712C117.579 26.048 116.659 26.216 115.603 26.216ZM140.712 9.248V11.96H136.248V26H132.888V11.96H128.424V9.248H140.712ZM146.524 9.248V26H143.164V9.248H146.524Z" fill="#212529"/>
<path d="M17.5 32.0834C25.5542 32.0834 32.0833 25.5542 32.0833 17.5C32.0833 9.44587 25.5542 2.91669 17.5 2.91669C9.44585 2.91669 2.91667 9.44587 2.91667 17.5C2.91667 25.5542 9.44585 32.0834 17.5 32.0834Z" stroke="#212529" stroke-width="2" stroke-linecap="round" stroke-linejoin="round"/>
<path d="M2.91667 17.5H32.0833" stroke="#212529" stroke-width="2" stroke-linecap="round" stroke-linejoin="round"/>
<path d="M17.5 2.91669C21.1477 6.91012 23.2207 12.0926 23.3333 17.5C23.2207 22.9075 21.1477 28.0899 17.5 32.0834C13.8523 28.0899 11.7793 22.9075 11.6667 17.5C11.7793 12.0926 13.8523 6.91012 17.5 2.91669V2.91669Z" stroke="#212529" stroke-width="2" stroke-linecap="round" stroke-linejoin="round"/>
</svg>
